<?xml version="1.0" standalone="no"?>
<!DOCTYPE svg PUBLIC "-//W3C//DTD SVG 20010904//EN"
 "http://www.w3.org/TR/2001/REC-SVG-20010904/DTD/svg10.dtd">
<svg version="1.0" xmlns="http://www.w3.org/2000/svg"
 width="260.000000pt" height="260.000000pt" viewBox="0 0 260.000000 260.000000"
 preserveAspectRatio="xMidYMid meet">
<metadata>
Created by potrace 1.11, written by Peter Selinger 2001-2013
</metadata>
<g transform="translate(0.000000,260.000000) scale(0.100000,-0.100000)"
fill="#000000" stroke="none">
<path d="M0 1300 l0 -1300 1300 0 1300 0 0 1300 0 1300 -1300 0 -1300 0 0
-1300z m1007 386 c26 -22 28 -30 28 -95 0 -83 -18 -109 -82 -118 -51 -7 -111
20 -93 42 9 10 24 13 57 8 55 -7 73 10 73 67 0 58 -18 74 -74 67 -38 -6 -48
-4 -53 10 -17 45 96 60 144 19z m493 -90 c0 -113 -7 -139 -33 -118 -7 5 -21 6
-32 1 -46 -18 -90 -5 -79 24 4 12 18 17 45 17 50 0 59 18 59 114 0 69 2 76 20
76 19 0 20 -7 20 -114z m154 98 c12 -11 16 -36 16 -91 0 -59 4 -78 17 -88 15
-11 15 -14 0 -36 -10 -13 -17 -34 -17 -47 0 -34 -44 -27 -48 8 -2 14 -10 29
-18 33 -18 11 -18 36 1 43 11 5 15 23 15 74 0 51 -4 69 -15 74 -8 3 -15 15
-15 26 0 25 41 28 64 4z m250 -7 c51 -51 41 -173 -16 -203 -34 -18 -98 -14
-124 7 -24 20 1 34 59 34 l52 0 8 40 c6 26 5 50 -2 69 -11 28 -14 28 -61 23
-60 -7 -85 12 -48 37 35 25 104 21 132 -7z m-674 -72 c4 -24 11 -31 33 -33 39
-5 37 -40 -3 -48 -23 -5 -30 -12 -30 -29 0 -26 -24 -50 -40 -40 -5 3 -10 19
-10 36 0 22 -5 29 -19 29 -33 0 -51 11 -51 31 0 14 7 19 29 19 30 0 41 14 41
52 0 34 44 19 50 -17z m676 -346 c26 -24 39 -97 26 -144 -9 -33 -63 -75 -96
-75 -12 0 -36 9 -55 21 -31 19 -33 22 -18 37 14 13 20 14 40 3 33 -18 59 -11
75 19 14 28 10 84 -9 106 -14 17 -43 18 -68 2 -27 -16 -58 7 -39 29 31 38 104
39 144 2z m-1135 -61 c47 -123 50 -138 33 -145 -22 -8 -39 12 -54 67 -18 65
-37 83 -46 43 -16 -65 -43 -113 -64 -113 -26 0 -25 7 5 82 14 34 25 65 25 69
0 3 7 23 15 43 26 61 48 49 86 -46z m718 68 c8 -9 11 -61 9 -162 -3 -125 -5
-149 -18 -149 -12 0 -15 22 -18 130 -2 118 -4 132 -23 147 -12 10 -19 24 -15
33 7 19 50 20 65 1z m171 -5 c5 -11 10 -50 10 -87 0 -47 5 -73 15 -84 14 -15
14 -21 1 -46 -8 -16 -17 -37 -20 -47 -10 -31 -41 -16 -44 21 -2 20 -9 32 -18
32 -8 0 -14 9 -14 20 0 11 7 20 15 20 12 0 15 15 15 75 0 60 -3 75 -15 75 -8
0 -15 9 -15 20 0 28 55 28 70 1z m-518 -68 c2 -22 9 -29 33 -33 21 -4 31 -12
33 -27 3 -18 -2 -22 -30 -25 -29 -3 -33 -7 -36 -35 -2 -24 -8 -33 -22 -33 -14
0 -20 9 -22 33 -3 28 -7 32 -35 35 -27 3 -33 8 -33 27 0 19 6 24 33 27 27 2
33 8 35 31 5 38 39 38 44 0z"/>
</g>
</svg>
